<?xml version="1.0" encoding="utf-8"?>
<!-- Generator: Adobe Illustrator 19.0.0, SVG Export Plug-In . SVG Version: 6.00 Build 0)  -->
<svg version="1.1" id="圖層_1" xmlns="http://www.w3.org/2000/svg" xmlns:xlink="http://www.w3.org/1999/xlink" x="0px" y="0px"
	 viewBox="0 21 30 30" style="enable-background:new 0 21 30 30;" xml:space="preserve">
<style type="text/css">
	.st0{fill:url(#XMLID_3_);stroke:#8A8A8A;stroke-width:0.75;stroke-miterlimit:10;}
	.st1{fill:none;}
	.st2{fill:#FFFFFF;}
	.st3{fill:#8A8A8A;}
</style>
<radialGradient id="XMLID_3_" cx="14.6385" cy="29.3093" r="20.1051" fx="14.3792" fy="28.3705" gradientTransform="matrix(2.968988e-02 0.9996 -0.7996 2.375190e-02 37.641 13.9811)" gradientUnits="userSpaceOnUse">
	<stop  offset="0" style="stop-color:#4CFDB8"/>
	<stop  offset="0.3419" style="stop-color:#4DFBB7"/>
	<stop  offset="0.5082" style="stop-color:#50F3B4"/>
	<stop  offset="0.6367" style="stop-color:#56E6AE"/>
	<stop  offset="0.7457" style="stop-color:#5DD4A5"/>
	<stop  offset="0.8423" style="stop-color:#67BB9B"/>
	<stop  offset="0.9289" style="stop-color:#739E8E"/>
	<stop  offset="1" style="stop-color:#808080"/>
</radialGradient>
<path id="XMLID_1_" class="st0" d="M25.4,32.9c0,4.8-7.4,13.9-9.5,16.5c-0.3,0.4-0.9,0.4-1.2,0c-2.2-2.6-9.6-11.7-9.6-16.5
	c0-5.6,4.6-10.1,10.2-10.1S25.4,27.3,25.4,32.9z"/>
<title>waste-basket-15.svg</title>
<rect x="6" y="24" class="st1" width="19" height="19"/>
<g>
	<path class="st2" d="M12.4,40.4c-0.4,0-0.7-0.3-0.8-0.6v-0.1l-1.3-8.1c0-0.5,0.2-0.9,0.7-1h0.1h9c0.5,0,0.8,0.4,0.9,0.9
		c0,0,0,0,0,0.1l-1.3,8.1c0,0.4-0.4,0.7-0.9,0.7C18.8,40.4,12.4,40.4,12.4,40.4z M10.5,30.4c-0.5,0-0.9-0.4-0.9-0.9s0.4-0.9,0.9-0.9
		h2.1v-1.1c0-0.5,0.4-0.9,0.9-0.9h4c0.5,0,0.9,0.4,0.9,0.9v1.1h2.1c0.5,0,0.9,0.4,0.9,0.9s-0.4,0.9-0.9,0.9H10.5z M16.6,28.6v-0.2
		h-2.2v0.2H16.6z"/>
	<path class="st3" d="M17.5,27c0.3,0,0.5,0.2,0.5,0.5V29h2.5c0.3,0,0.5,0.2,0.5,0.5S20.8,30,20.5,30h-10c-0.3,0-0.5-0.2-0.5-0.5
		s0.2-0.5,0.5-0.5H13v-1.5c0-0.3,0.2-0.5,0.5-0.5H17.5 M14,29h3v-1h-3V29 M19.9,31c0.3,0,0.5,0.2,0.5,0.6l-1.3,8
		c0,0.2-0.2,0.4-0.5,0.4h-6.2c-0.2,0-0.4-0.2-0.5-0.4l-1.3-8c0-0.3,0.1-0.5,0.4-0.6h0.1L19.9,31 M20.4,31.5L20.4,31.5L20.4,31.5
		 M17.5,26.3h-4c-0.7,0-1.2,0.5-1.2,1.2v0.8h-1.8c-0.7,0-1.2,0.5-1.2,1.2c0,0.6,0.4,1.1,0.9,1.2c-0.2,0.2-0.3,0.5-0.3,0.9v0.1v0.1
		l1.3,8v0.1l0.1,0.1c0.2,0.4,0.6,0.8,1.2,0.8h6.2c0.7,0,1.2-0.5,1.2-1.1l1.3-8v-0.1v-0.1v-0.1l0,0c0-0.3-0.1-0.6-0.3-0.8
		c0.5-0.1,0.9-0.6,0.9-1.2c0-0.7-0.5-1.2-1.2-1.2h-1.8v-0.8C18.8,26.8,18.2,26.3,17.5,26.3L17.5,26.3z"/>
</g>
</svg>
