<?xml version="1.0" encoding="utf-8"?>
<!-- Generator: Adobe Illustrator 19.0.0, SVG Export Plug-In . SVG Version: 6.00 Build 0)  -->
<svg version="1.1" id="圖層_1" xmlns="http://www.w3.org/2000/svg" xmlns:xlink="http://www.w3.org/1999/xlink" x="0px" y="0px"
	 viewBox="0 21 30 30" style="enable-background:new 0 21 30 30;" xml:space="preserve">
<style type="text/css">
	.st0{fill:url(#XMLID_3_);stroke:#8A8A8A;stroke-width:0.75;stroke-miterlimit:10;}
	.st1{fill:none;}
	.st2{fill:#FFFFFF;}
	.st3{fill:#8A8A8A;}
</style>
<title>waste-basket-15.svg</title>
<radialGradient id="XMLID_3_" cx="14.8957" cy="29.7016" r="18.9758" gradientUnits="userSpaceOnUse">
	<stop  offset="0" style="stop-color:#FC4B48"/>
	<stop  offset="0.3126" style="stop-color:#FA4B48"/>
	<stop  offset="0.4648" style="stop-color:#F24B48"/>
	<stop  offset="0.5823" style="stop-color:#E54B49"/>
	<stop  offset="0.6819" style="stop-color:#D34B49"/>
	<stop  offset="0.7704" style="stop-color:#BA4C4A"/>
	<stop  offset="0.8509" style="stop-color:#9D4C4B"/>
	<stop  offset="0.9253" style="stop-color:#794C4C"/>
	<stop  offset="0.9931" style="stop-color:#524D4D"/>
	<stop  offset="1" style="stop-color:#4D4D4D"/>
</radialGradient>
<path id="XMLID_2_" class="st0" d="M25.2,32.9c0,4.8-7.4,13.9-9.5,16.5c-0.3,0.4-0.9,0.4-1.2,0c-2.2-2.6-9.6-11.7-9.6-16.5
	c0-5.6,4.6-10.1,10.2-10.1S25.2,27.3,25.2,32.9z"/>
<rect x="5.8" y="24" class="st1" width="19" height="19"/>
<g>
	<path class="st2" d="M12.2,40.4c-0.4,0-0.7-0.3-0.8-0.6v-0.1l-1.3-8.1c0-0.5,0.2-0.9,0.7-1h0.1h9c0.5,0,0.8,0.4,0.9,0.9
		c0,0,0,0,0,0.1l-1.3,8.1c0,0.4-0.4,0.7-0.9,0.7C18.6,40.4,12.2,40.4,12.2,40.4z M10.3,30.4c-0.5,0-0.9-0.4-0.9-0.9s0.4-0.9,0.9-0.9
		h2.1v-1.1c0-0.5,0.4-0.9,0.9-0.9h4c0.5,0,0.9,0.4,0.9,0.9v1.1h2.1c0.5,0,0.9,0.4,0.9,0.9s-0.4,0.9-0.9,0.9H10.3z M16.4,28.6v-0.2
		h-2.2v0.2H16.4z"/>
	<path class="st3" d="M17.3,27c0.3,0,0.5,0.2,0.5,0.5V29h2.5c0.3,0,0.5,0.2,0.5,0.5S20.6,30,20.3,30h-10c-0.3,0-0.5-0.2-0.5-0.5
		S10,29,10.3,29h2.5v-1.5c0-0.3,0.2-0.5,0.5-0.5H17.3 M13.8,29h3v-1h-3V29 M19.7,31c0.3,0,0.5,0.2,0.5,0.6l-1.3,8
		c0,0.2-0.2,0.4-0.5,0.4h-6.2c-0.2,0-0.4-0.2-0.5-0.4l-1.3-8c0-0.3,0.1-0.5,0.4-0.6h0.1L19.7,31 M20.2,31.5L20.2,31.5L20.2,31.5
		 M17.3,26.3h-4c-0.7,0-1.2,0.5-1.2,1.2v0.8h-1.8c-0.7,0-1.2,0.5-1.2,1.2c0,0.6,0.4,1.1,0.9,1.2c-0.2,0.2-0.3,0.5-0.3,0.9v0.1v0.1
		l1.3,8v0.1l0.1,0.1c0.2,0.4,0.6,0.8,1.2,0.8h6.2c0.7,0,1.2-0.5,1.2-1.1l1.3-8v-0.1v-0.1v-0.1l0,0c0-0.3-0.1-0.6-0.3-0.8
		c0.5-0.1,0.9-0.6,0.9-1.2c0-0.7-0.5-1.2-1.2-1.2h-1.8v-0.8C18.6,26.8,18,26.3,17.3,26.3L17.3,26.3z"/>
</g>
</svg>
