<?xml version="1.0" encoding="utf-8"?>
<!-- Generator: Adobe Illustrator 19.0.0, SVG Export Plug-In . SVG Version: 6.00 Build 0)  -->
<svg version="1.1" id="圖層_1" xmlns="http://www.w3.org/2000/svg" xmlns:xlink="http://www.w3.org/1999/xlink" x="0px" y="0px"
	 viewBox="0 21 30 30" style="enable-background:new 0 21 30 30;" xml:space="preserve">
<style type="text/css">
	.st0{fill:url(#XMLID_3_);stroke:#8A8A8A;stroke-width:0.75;stroke-miterlimit:10;}
	.st1{fill:none;}
	.st2{fill:#FFFFFF;}
	.st3{fill:#8A8A8A;}
</style>
<title>waste-basket-15.svg</title>
<radialGradient id="XMLID_3_" cx="15.3653" cy="27.1632" r="19.6525" gradientUnits="userSpaceOnUse">
	<stop  offset="0" style="stop-color:#93B58A"/>
	<stop  offset="0.4294" style="stop-color:#92B38A"/>
	<stop  offset="0.6383" style="stop-color:#8FAB88"/>
	<stop  offset="0.7996" style="stop-color:#8B9E86"/>
	<stop  offset="0.9355" style="stop-color:#848C82"/>
	<stop  offset="1" style="stop-color:#808080"/>
</radialGradient>
<path id="XMLID_2_" class="st0" d="M25.7,32.2c0,4.8-7.4,13.9-9.5,16.5c-0.3,0.4-0.9,0.4-1.2,0C12.8,46.1,5.4,37,5.4,32.2
	c0-5.6,4.6-10.1,10.2-10.1S25.7,26.6,25.7,32.2z"/>
<rect x="6.3" y="23.3" class="st1" width="19" height="19"/>
<g>
	<path class="st2" d="M12.7,39.7c-0.4,0-0.7-0.3-0.8-0.6V39l-1.3-8.1c0-0.5,0.2-0.9,0.7-1h0.1h9c0.5,0,0.8,0.4,0.9,0.9
		c0,0,0,0,0,0.1L20,39c0,0.4-0.4,0.7-0.9,0.7C19.1,39.7,12.7,39.7,12.7,39.7z M10.8,29.7c-0.5,0-0.9-0.4-0.9-0.9s0.4-0.9,0.9-0.9
		h2.1v-1.1c0-0.5,0.4-0.9,0.9-0.9h4c0.5,0,0.9,0.4,0.9,0.9v1.1h2.1c0.5,0,0.9,0.4,0.9,0.9s-0.4,0.9-0.9,0.9H10.8z M16.9,27.9v-0.2
		h-2.2v0.2H16.9z"/>
	<path class="st3" d="M17.8,26.3c0.3,0,0.5,0.2,0.5,0.5v1.5h2.5c0.3,0,0.5,0.2,0.5,0.5s-0.2,0.5-0.5,0.5h-10c-0.3,0-0.5-0.2-0.5-0.5
		s0.2-0.5,0.5-0.5h2.5v-1.5c0-0.3,0.2-0.5,0.5-0.5H17.8 M14.3,28.3h3v-1h-3V28.3 M20.2,30.3c0.3,0,0.5,0.2,0.5,0.6l-1.3,8
		c0,0.2-0.2,0.4-0.5,0.4h-6.2c-0.2,0-0.4-0.2-0.5-0.4l-1.3-8c0-0.3,0.1-0.5,0.4-0.6h0.1L20.2,30.3 M20.7,30.8L20.7,30.8L20.7,30.8
		 M17.8,25.6h-4c-0.7,0-1.2,0.5-1.2,1.2v0.8h-1.8c-0.7,0-1.2,0.5-1.2,1.2c0,0.6,0.4,1.1,0.9,1.2c-0.2,0.2-0.3,0.5-0.3,0.9V31v0.1
		l1.3,8v0.1l0.1,0.1c0.2,0.4,0.6,0.8,1.2,0.8H19c0.7,0,1.2-0.5,1.2-1.1l1.3-8v-0.1v-0.1v-0.1l0,0c0-0.3-0.1-0.6-0.3-0.8
		c0.5-0.1,0.9-0.6,0.9-1.2c0-0.7-0.5-1.2-1.2-1.2h-1.8v-0.8C19.1,26.1,18.5,25.6,17.8,25.6L17.8,25.6z"/>
</g>
</svg>
