<?xml version="1.0" encoding="utf-8"?>
<!-- Generator: Adobe Illustrator 18.0.0, SVG Export Plug-In . SVG Version: 6.00 Build 0)  -->
<!DOCTYPE svg PUBLIC "-//W3C//DTD SVG 1.1//EN" "http://www.w3.org/Graphics/SVG/1.1/DTD/svg11.dtd">
<svg version="1.1" id="圖層_1" xmlns="http://www.w3.org/2000/svg" xmlns:xlink="http://www.w3.org/1999/xlink" x="0px" y="0px"
	 viewBox="0 0 960 560" enable-background="new 0 0 960 560" xml:space="preserve">
<radialGradient id="XMLID_3_" cx="15.73" cy="532.7564" r="18.9758" gradientTransform="matrix(18.6667 0 0 -18.6667 182.3333 10102)" gradientUnits="userSpaceOnUse">
	<stop  offset="0" style="stop-color:#F2F2F2"/>
	<stop  offset="0.3311" style="stop-color:#E6E6E6"/>
	<stop  offset="0.4922" style="stop-color:#CCCCCC"/>
	<stop  offset="0.6166" style="stop-color:#B3B3B3"/>
	<stop  offset="0.7221" style="stop-color:#999999"/>
	<stop  offset="0.8158" style="stop-color:#808080"/>
	<stop  offset="0.901" style="stop-color:#808080"/>
	<stop  offset="0.9781" style="stop-color:#4D4D4D"/>
	<stop  offset="1" style="stop-color:#4D4D4D"/>
</radialGradient>
<path id="XMLID_2_" fill="url(#XMLID_3_)" stroke="#8A8A8A" stroke-width="12" stroke-miterlimit="10" d="M668.7,216.7
	c0,89.6-138.1,259.5-177.3,308c-5.6,7.5-16.8,7.5-22.4,0c-41.1-48.5-179.2-218.4-179.2-308c0-104.5,85.9-188.5,190.4-188.5
	S668.7,112.1,668.7,216.7z"/>
<rect x="306.6" y="50.5" fill="none" width="354.7" height="354.7"/>
<g>
	<path fill="#FFFFFF" d="M426.1,356.7c-7.5,0-13.1-5.6-14.9-11.2v-1.9l-24.3-151.2c0-9.3,3.7-16.8,13.1-18.7h1.9h168
		c9.3,0,14.9,7.5,16.8,16.8c0,0,0,0,0,1.9l-24.3,151.2c0,7.5-7.5,13.1-16.8,13.1C545.5,356.7,426.1,356.7,426.1,356.7z M390.6,170
		c-9.3,0-16.8-7.5-16.8-16.8c0-9.3,7.5-16.8,16.8-16.8h39.2v-20.5c0-9.3,7.5-16.8,16.8-16.8h74.7c9.3,0,16.8,7.5,16.8,16.8v20.5
		h39.2c9.3,0,16.8,7.5,16.8,16.8c0,9.3-7.5,16.8-16.8,16.8H390.6z M504.5,136.4v-3.7h-41.1v3.7H504.5z"/>
	<path fill="#8A8A8A" d="M521.3,106.5c5.6,0,9.3,3.7,9.3,9.3v28h46.7c5.6,0,9.3,3.7,9.3,9.3c0,5.6-3.7,9.3-9.3,9.3H390.6
		c-5.6,0-9.3-3.7-9.3-9.3c0-5.6,3.7-9.3,9.3-9.3h46.7v-28c0-5.6,3.7-9.3,9.3-9.3H521.3 M455.9,143.9h56v-18.7h-56V143.9
		 M566.1,181.2c5.6,0,9.3,3.7,9.3,11.2l-24.3,149.3c0,3.7-3.7,7.5-9.3,7.5H426.1c-3.7,0-7.5-3.7-9.3-7.5l-24.3-149.3
		c0-5.6,1.9-9.3,7.5-11.2h1.9H566.1 M575.4,190.5L575.4,190.5L575.4,190.5 M521.3,93.5h-74.7c-13.1,0-22.4,9.3-22.4,22.4v14.9h-33.6
		c-13.1,0-22.4,9.3-22.4,22.4c0,11.2,7.5,20.5,16.8,22.4c-3.7,3.7-5.6,9.3-5.6,16.8v1.9v1.9l24.3,149.3v1.9l1.9,1.9
		c3.7,7.5,11.2,14.9,22.4,14.9h115.7c13.1,0,22.4-9.3,22.4-20.5l24.3-149.3v-1.9v-1.9v-1.9l0,0c0-5.6-1.9-11.2-5.6-14.9
		c9.3-1.9,16.8-11.2,16.8-22.4c0-13.1-9.3-22.4-22.4-22.4h-33.6V114C545.5,102.8,534.3,93.5,521.3,93.5L521.3,93.5z"/>
</g>
</svg>
